<svg width="1440" height="800" viewBox="0 0 1440 800" fill="none" xmlns="http://www.w3.org/2000/svg">
    <g clip-path="url(#clip0)">
        <rect width="1440" height="800" fill="white"/>
        <path d="M1950 -797C1950 -789.473 -37 1732 -37 1732H855.128L1950 -797Z" fill="url(#paint0_linear)" fill-opacity="0.5"/>
        <path d="M1763 -610C1763 -603.511 299 1570 299 1570H923.086L1763 -610Z" fill="url(#paint1_linear)" fill-opacity="0.5"/>
        <circle cx="1404.5" cy="651.5" r="123.5" fill="#FFCDB6"/>
        <path d="M428.117 618.065C427.43 617.98 426.949 618.749 427.35 619.297C428.482 620.836 430.912 623.134 435.645 623.917C442.98 625.13 447.229 618.867 454.7 616.721C455.16 616.591 455.325 616.045 454.976 615.73C452.817 613.801 446.84 608.817 441.373 607.499C435.034 605.967 428.905 606.69 426.557 612.868C426.228 613.733 426.685 614.684 427.567 614.981C429.857 615.77 434.526 616.912 439.593 615.56C439.593 615.56 437.562 619.197 428.117 618.065Z" fill="#04D99D"/>
        <path d="M373.989 594.911C374.358 594.817 374.451 594.327 374.135 594.126C373.247 593.563 371.54 592.871 368.956 593.417C364.951 594.263 364.026 598.326 360.624 600.922C360.414 601.08 360.438 601.394 360.68 601.485C362.174 602.043 366.237 603.403 369.305 602.984C372.863 602.501 375.862 600.903 375.829 597.264C375.825 596.755 375.4 596.359 374.888 596.383C373.556 596.436 370.933 596.785 368.604 598.493C368.604 598.493 368.918 596.221 373.989 594.911Z" fill="#04D99D"/>
        <path d="M409.634 586.715C409.414 587.02 409.654 587.449 410.019 587.402C411.047 587.265 412.774 586.71 414.384 584.665C416.877 581.494 415.009 577.837 415.942 573.724C416 573.472 415.783 573.25 415.543 573.334C414.061 573.856 410.129 575.395 408.074 577.651C405.689 580.264 404.431 583.368 406.755 586.099C407.08 586.481 407.652 586.512 408.024 586.171C408.998 585.288 410.76 583.366 411.442 580.603C411.442 580.603 412.64 582.52 409.634 586.715Z" fill="#03A678"/>
        <path d="M355.162 549.787C355.919 550.426 357.096 549.883 357.045 548.913C356.895 546.186 355.788 541.535 350.739 536.892C342.915 529.698 332.929 533.864 322.312 530.581C321.66 530.376 321.034 530.9 321.205 531.55C322.277 535.548 325.524 546.19 331.033 552.048C337.416 558.842 345.314 562.777 352.96 557.226C354.031 556.448 354.229 554.953 353.407 553.906C351.285 551.169 346.594 546.148 339.473 543.798C339.473 543.798 344.751 541.037 355.162 549.787Z" fill="#025949"/>
    </g>
    <defs>
        <linearGradient id="paint0_linear" x1="-37" y1="467.495" x2="1949.99" y2="467.495" gradientUnits="userSpaceOnUse">
            <stop stop-color="white"/>
            <stop offset="1" stop-color="#FDECE0"/>
        </linearGradient>
        <linearGradient id="paint1_linear" x1="299" y1="479.995" x2="1688.99" y2="479.995" gradientUnits="userSpaceOnUse">
            <stop stop-color="white"/>
            <stop offset="1" stop-color="#FDECE0"/>
        </linearGradient>
        <clipPath id="clip0">
            <rect width="1440" height="800" fill="white"/>
        </clipPath>
    </defs>
</svg>
